<svg xmlns="http://www.w3.org/2000/svg" xmlns:xlink="http://www.w3.org/1999/xlink" width="200px" height="200px" viewBox="0 0 100 100" preserveAspectRatio="xMidYMid">
  <g transform="translate(50 50)">
    <g transform="scale(0.7)">
      <g transform="translate(-50 -50)">
        <g>
          <animateTransform attributeName="transform" type="rotate" repeatCount="indefinite" values="0 50 50;360 50 50" keyTimes="0;1" dur="1s" keySplines="0.5 0.5 0.5 0.5" calcMode="spline"></animateTransform>
          <path fill="#e63946" d="M50 0A50 50 0 1 1 50 100A50 50 0 1 1 50 0Z" transform="scale(0.8)"></path>
          <path fill="#1d3557" d="M50 0A50 50 0 1 0 50 100A50 50 0 1 0 50 0Z" transform="scale(0.6)"></path>
          <path fill="#e63946" d="M50 0A50 50 0 1 1 50 100A50 50 0 1 1 50 0Z" transform="scale(0.4)"></path>
          <path fill="#1d3557" d="M50 0A50 50 0 1 0 50 100A50 50 0 1 0 50 0Z" transform="scale(0.2)"></path>
        </g>
      </g>
    </g>
  </g>
</svg> 